<svg xmlns="http://www.w3.org/2000/svg" xmlns:xlink="http://www.w3.org/1999/xlink" x="0" y="0" version="1.1" viewBox="0 0 1356.46 315.84" style="enable-background:new 0 0 1356.46 315.84" xml:space="preserve"><style type="text/css">.st0{fill:none;stroke:#000;stroke-width:2;stroke-miterlimit:10}.st1{font-family:&apos;OpenSans&apos;}.st2{font-size:16px}.st3{font-family:&apos;OpenSans-Semibold&apos;}.st4{fill:none}.st6{fill:#b62e35}.st7{fill:#fff}.st8{font-family:&apos;OpenSans-Bold&apos;}.st9{font-size:30px}.st10{font-size:21px}.st11,.st12{fill:none;stroke:#000;stroke-width:.6976;stroke-miterlimit:10;stroke-dasharray:5.6689,5.6689}.st12{stroke-width:.7405;stroke-dasharray:6.0175,6.0175}</style><g id="Layer_1"><path d="M493.63,174.25L493.63,174.25L493.63,174.25z" class="st0"/><text transform="matrix(1 0 0 1 1006.1505 108.9452)"><tspan x="0" y="0" class="st1 st2">• Take a quick tour of the storefront</tspan><tspan x="0" y="38.4" class="st1 st2">• Explore Live Search from the Admin</tspan></text><text transform="matrix(1 0 0 1 518.0536 108.9452)"><tspan x="0" y="0" class="st1 st2">• Generate API keys (if necessary) </tspan><tspan x="0" y="38.4" class="st1 st2">• Configure Commerce Services</tspan><tspan x="0" y="76.8" class="st1 st2">• Verify catalog synchronization</tspan></text><text transform="matrix(1 0 0 1 87.994 175.7818)"><tspan x="0" y="0" class="st3 st2">Method 1 </tspan><tspan x="0" y="22" class="st1 st2">Install Live Search without Elasticsearch</tspan></text><text transform="matrix(1 0 0 1 84.2827 260.0609)"><tspan x="0" y="0" class="st3 st2">Method 2</tspan><tspan x="73.46" y="0" class="st1 st2"> (no downtime) </tspan><tspan x="0" y="22" class="st1 st2">Install Live Search with Elasticsearch</tspan></text><rect width="66.14" height="1.67" x="75.94" y="234.8" class="st4"/></g><g id="Layer_2"><g><g><circle cx="52.43" cy="51.1" r="18.2" class="st6"/></g><text class="st7 st8 st9" transform="matrix(1 0 0 1 42.6814 61.6232)">1</text></g><g><g><circle cx="978.33" cy="51.1" r="18.2" class="st6"/></g><text class="st7 st8 st9" transform="matrix(1 0 0 1 968.8525 61.6232)">3</text></g><g><g><circle cx="487.55" cy="51.1" r="18.2" class="st6"/></g><text class="st7 st8 st9" transform="matrix(1 0 0 1 479.8827 61.2778)">2</text></g><path d="M493.63,174.25L493.63,174.25L493.63,174.25z" class="st0"/><text transform="matrix(1 0 0 1 87.994 113.6081)"><tspan x="0" y="0" class="st1 st2">Use the method you prefer to install </tspan><tspan x="0" y="22" class="st1 st2">Live Search from the command line:</tspan></text><text class="st3 st10" transform="matrix(1 0 0 1 518.0534 58.8409)">Configure Live Search</text><text class="st3 st10" transform="matrix(1 0 0 1 87.9939 56.608)">Install Live Search</text><g><g><line x1="274.88" x2="451.35" y1="51.1" y2="51.1" class="st11"/><g><polygon points="450.78 46.86 450.78 55.34 455.02 51.1"/></g></g></g><text class="st3 st10" transform="matrix(1 0 0 1 1006.1509 58.8409)">Learn Live Search</text><g><g><line x1="743.76" x2="942.84" y1="51.1" y2="51.1" class="st12"/><g><polygon points="942.24 46.6 942.24 55.6 946.74 51.1"/></g></g></g><text transform="matrix(1 0 0 1 786.7751 480.3788)" style="font-family:'MyriadPro-Regular';font-size:12px">Lorem ipsum</text></g></svg>